<svg width="18" height="14" viewBox="0 0 18 14" fill="none" xmlns="http://www.w3.org/2000/svg">
<path d="M0 0H18V14H0V0Z" fill="#012169"/>
<path d="M0 0V1.56406L15.9873 14H18V12.4359L2.0127 0H0ZM18 0V1.56406L2.0127 14H0V12.4359L15.9873 0H18Z" fill="white"/>
<path d="M7.5006 0V14H10.4994V0H7.5006ZM0 4.66758V9.3324H18V4.66758H0Z" fill="white"/>
<path d="M0 5.6V8.4H18V5.6H0ZM8.1 0V14H9.9V0H8.1ZM0 14L5.99942 9.3324H7.34238L1.34121 14H0ZM0 0L5.99942 4.66758H4.65821L0 1.04453V0ZM10.6594 4.66758L16.6588 0H18L12.0006 4.66758H10.6594ZM18 14L12.0006 9.3324H13.3418L18 12.9555V14Z" fill="#C8102E"/>
</svg>
