<svg width="100" height="100" viewBox="0 0 100 100" fill="none" xmlns="http://www.w3.org/2000/svg">
<path d="M22.7008 100V32.5302H1.26472V100H22.7008ZM11.9855 23.3128C19.4607 23.3128 24.1136 18.1319 24.1136 11.6575C23.9743 5.03709 19.4609 0 12.1274 0C4.79496 0 0 5.03719 0 11.6575C0 18.1322 4.65176 23.3128 11.8456 23.3128H11.9849H11.9855ZM34.5656 100H56.0017V62.3215C56.0017 60.305 56.1409 58.2906 56.707 56.8491C58.2567 52.8203 61.7837 48.6475 67.7053 48.6475C75.4621 48.6475 78.5653 54.8346 78.5653 63.9046V99.9995H100V61.3129C100 40.5889 89.4246 30.9462 75.3209 30.9462C63.757 30.9462 58.6797 37.7084 55.859 42.3141H56.0021V32.5288H34.5661C34.8474 38.8598 34.5661 99.9986 34.5661 99.9986L34.5656 100Z" fill="#E70F0F"/>
</svg>
