<svg width="120" height="120" viewBox="0 0 120 120" fill="none" xmlns="http://www.w3.org/2000/svg">
<mask id="path-1-inside-1_62:40" fill="white">
<path d="M112.632 66.93L104.424 42.306C103.233 38.7209 100.943 35.6022 97.8787 33.393C94.8143 31.1839 91.1317 29.9966 87.354 30H32.646C28.8683 29.9966 25.1857 31.1839 22.1213 33.393C19.0569 35.6022 16.7667 38.7209 15.576 42.306L7.368 66.93C5.1858 67.8439 3.32227 69.3823 2.01141 71.3517C0.700543 73.3212 0.000783974 75.6341 0 78V96C0 100.428 2.424 104.256 6 106.338V114C6 115.591 6.63214 117.117 7.75736 118.243C8.88258 119.368 10.4087 120 12 120H18C19.5913 120 21.1174 119.368 22.2426 118.243C23.3679 117.117 24 115.591 24 114V108H96V114C96 115.591 96.6321 117.117 97.7574 118.243C98.8826 119.368 100.409 120 102 120H108C109.591 120 111.117 119.368 112.243 118.243C113.368 117.117 114 115.591 114 114V106.338C115.82 105.294 117.333 103.789 118.387 101.974C119.44 100.159 119.997 98.0985 120 96V78C120 73.014 116.958 68.748 112.632 66.93ZM32.646 42H87.348C88.6078 41.9997 89.8357 42.3959 90.8577 43.1325C91.8797 43.8692 92.6439 44.9088 93.042 46.104L99.678 66H20.322L26.952 46.104C27.774 43.65 30.066 42 32.646 42V42ZM21 96C19.8177 95.9996 18.6471 95.7663 17.5549 95.3135C16.4628 94.8607 15.4705 94.1972 14.6348 93.361C12.947 91.672 11.9992 89.3817 12 86.994C12.0008 84.6063 12.9501 82.3166 14.639 80.6288C16.328 78.941 18.6183 77.9932 21.006 77.994C23.3937 77.9948 25.6834 78.9441 27.3712 80.633C29.059 82.322 30.0068 84.6123 30.006 87C30.0052 89.3877 29.0559 91.6774 27.367 93.3652C25.678 95.053 23.3877 96.0008 21 96V96ZM99 96C96.6123 95.9992 94.3226 95.0499 92.6348 93.361C90.947 91.672 89.9992 89.3817 90 86.994C90.0008 84.6063 90.9501 82.3166 92.639 80.6288C94.328 78.941 96.6183 77.9932 99.006 77.994C101.394 77.9948 103.683 78.9441 105.371 80.633C107.059 82.322 108.007 84.6123 108.006 87C108.005 89.3877 107.056 91.6774 105.367 93.3652C103.678 95.053 101.388 96.0008 99 96V96ZM19.662 18C21.744 21.57 25.572 24 30 24C34.428 24 38.256 21.57 40.338 18H79.668C81.744 21.57 85.572 24 90 24C94.428 24 98.256 21.57 100.338 18H90V6H100.338C98.256 2.43 94.428 0 90 0C85.572 0 81.744 2.43 79.662 6H40.338C38.256 2.43 34.428 0 30 0C25.572 0 21.744 2.43 19.662 6H30V18H19.662Z"/>
</mask>
<path d="M112.632 66.93L104.424 42.306C103.233 38.7209 100.943 35.6022 97.8787 33.393C94.8143 31.1839 91.1317 29.9966 87.354 30H32.646C28.8683 29.9966 25.1857 31.1839 22.1213 33.393C19.0569 35.6022 16.7667 38.7209 15.576 42.306L7.368 66.93C5.1858 67.8439 3.32227 69.3823 2.01141 71.3517C0.700543 73.3212 0.000783974 75.6341 0 78V96C0 100.428 2.424 104.256 6 106.338V114C6 115.591 6.63214 117.117 7.75736 118.243C8.88258 119.368 10.4087 120 12 120H18C19.5913 120 21.1174 119.368 22.2426 118.243C23.3679 117.117 24 115.591 24 114V108H96V114C96 115.591 96.6321 117.117 97.7574 118.243C98.8826 119.368 100.409 120 102 120H108C109.591 120 111.117 119.368 112.243 118.243C113.368 117.117 114 115.591 114 114V106.338C115.82 105.294 117.333 103.789 118.387 101.974C119.44 100.159 119.997 98.0985 120 96V78C120 73.014 116.958 68.748 112.632 66.93ZM32.646 42H87.348C88.6078 41.9997 89.8357 42.3959 90.8577 43.1325C91.8797 43.8692 92.6439 44.9088 93.042 46.104L99.678 66H20.322L26.952 46.104C27.774 43.65 30.066 42 32.646 42V42ZM21 96C19.8177 95.9996 18.6471 95.7663 17.5549 95.3135C16.4628 94.8607 15.4705 94.1972 14.6348 93.361C12.947 91.672 11.9992 89.3817 12 86.994C12.0008 84.6063 12.9501 82.3166 14.639 80.6288C16.328 78.941 18.6183 77.9932 21.006 77.994C23.3937 77.9948 25.6834 78.9441 27.3712 80.633C29.059 82.322 30.0068 84.6123 30.006 87C30.0052 89.3877 29.0559 91.6774 27.367 93.3652C25.678 95.053 23.3877 96.0008 21 96V96ZM99 96C96.6123 95.9992 94.3226 95.0499 92.6348 93.361C90.947 91.672 89.9992 89.3817 90 86.994C90.0008 84.6063 90.9501 82.3166 92.639 80.6288C94.328 78.941 96.6183 77.9932 99.006 77.994C101.394 77.9948 103.683 78.9441 105.371 80.633C107.059 82.322 108.007 84.6123 108.006 87C108.005 89.3877 107.056 91.6774 105.367 93.3652C103.678 95.053 101.388 96.0008 99 96V96ZM19.662 18C21.744 21.57 25.572 24 30 24C34.428 24 38.256 21.57 40.338 18H79.668C81.744 21.57 85.572 24 90 24C94.428 24 98.256 21.57 100.338 18H90V6H100.338C98.256 2.43 94.428 0 90 0C85.572 0 81.744 2.43 79.662 6H40.338C38.256 2.43 34.428 0 30 0C25.572 0 21.744 2.43 19.662 6H30V18H19.662Z" fill="#F92A2A" stroke="black" stroke-width="2" mask="url(#path-1-inside-1_62:40)"/>
</svg>
