<svg width="70" height="70" viewBox="0 0 70 70" fill="none" xmlns="http://www.w3.org/2000/svg">
<path d="M65.2277 39.2006L65.2993 39.4156L65.5083 39.5034C67.8535 40.489 69.5 42.8006 69.5 45.5V55.9992C69.4981 57.1354 69.1969 58.2511 68.6265 59.2338C68.0562 60.2165 67.2369 61.0315 66.2513 61.5968L66 61.7409V62.0305V66.5C66 67.2957 65.6839 68.0587 65.1213 68.6213C64.5587 69.1839 63.7957 69.5 63 69.5H59.5C58.7043 69.5 57.9413 69.1839 57.3787 68.6213C56.8161 68.0587 56.5 67.2957 56.5 66.5V63V62.5H56H14H13.5V63V66.5C13.5 67.2957 13.1839 68.0587 12.6213 68.6213C12.0587 69.1839 11.2957 69.5 10.5 69.5H7C6.20435 69.5 5.44129 69.1839 4.87868 68.6213C4.31607 68.0587 4 67.2957 4 66.5V62.0305V61.743L3.75157 61.5984C1.80949 60.4677 0.5 58.3939 0.5 56L0.5 45.5002C0.5 45.5001 0.5 45.5001 0.5 45.5C0.500457 44.2185 0.879505 42.9657 1.58955 41.8989C2.29963 40.832 3.30908 39.9988 4.49115 39.5037L4.70055 39.416L4.77234 39.2006L9.56034 24.8366L9.56051 24.8361C10.222 22.8445 11.4942 21.1121 13.1965 19.8849C14.8988 18.6577 16.9445 17.9981 19.0431 18H19.0435H50.9565H50.9569C53.0555 17.9981 55.1012 18.6577 56.8035 19.8849C58.5058 21.1121 59.778 22.8445 60.4395 24.8361L60.4397 24.8366L65.2277 39.2006ZM50.9565 17.5H19.0435C16.8399 17.498 14.6916 18.1906 12.9041 19.4793C11.1165 20.7679 9.78057 22.5872 9.086 24.6785L50.9565 17.5ZM58.1455 39H58.8393L58.6198 38.3418L54.7489 26.736C54.4835 25.9392 53.974 25.2461 53.2927 24.755C52.6114 24.264 51.7928 23.9998 50.953 24C50.953 24 50.9529 24 50.9529 24H19.0435C17.3231 24 15.7955 25.1003 15.2479 26.7352L15.2476 26.7359L11.3801 38.3419L11.1609 39H11.8545H58.1455ZM23.5305 10H23.2433L23.0986 10.2481C21.9676 12.1873 19.8935 13.5 17.5 13.5C15.4308 13.5 13.6002 12.5189 12.4114 11H17.5H18V10.5V3.5V3H17.5H12.4114C13.6002 1.48112 15.4308 0.5 17.5 0.5C19.8935 0.5 21.9676 1.81267 23.0986 3.75189L23.2433 4H23.5305H46.4695H46.7567L46.9014 3.75189C48.0324 1.81267 50.1065 0.5 52.5 0.5C54.5692 0.5 56.3998 1.48112 57.5886 3H52.5H52V3.5V10.5V11H52.5H57.5886C56.3998 12.5189 54.5692 13.5 52.5 13.5C50.1064 13.5 48.0326 12.1873 46.9052 10.2487L46.7606 10H46.473H23.5305ZM10.0489 56.0614C10.7466 56.3507 11.4945 56.4997 12.2498 56.5C13.7753 56.5005 15.2385 55.895 16.3175 54.8167C17.3965 53.7384 18.003 52.2756 18.0035 50.7502C18.004 49.2247 17.3985 47.7615 16.3202 46.6825C15.2419 45.6035 13.7791 44.997 12.2537 44.9965C10.7282 44.996 9.26503 45.6015 8.186 46.6798C7.10698 47.7581 6.50051 49.2209 6.5 50.7463C6.49949 52.2718 7.10499 53.735 8.18329 54.814C8.71721 55.3483 9.35114 55.7722 10.0489 56.0614ZM53.6833 54.814C54.7616 55.893 56.2244 56.4995 57.7498 56.5C59.2753 56.5005 60.7385 55.895 61.8175 54.8167C62.8965 53.7384 63.503 52.2756 63.5035 50.7502C63.504 49.2247 62.8985 47.7615 61.8202 46.6825C60.7419 45.6035 59.2791 44.997 57.7537 44.9965C56.2282 44.996 54.765 45.6015 53.686 46.6798C52.607 47.7581 52.0005 49.2209 52 50.7463C51.9995 52.2718 52.605 53.735 53.6833 54.814Z" fill="#F92A2A" stroke="black"/>
</svg>
