<svg width="80" height="83" viewBox="0 0 80 83" fill="none" xmlns="http://www.w3.org/2000/svg">
<path d="M75.088 46.1486L69.616 29.1702C68.8222 26.6983 67.2954 24.5479 65.2525 23.0247C63.2095 21.5015 60.7544 20.6829 58.236 20.6852H21.764C19.2456 20.6829 16.7905 21.5015 14.7475 23.0247C12.7046 24.5479 11.1778 26.6983 10.384 29.1702L4.912 46.1486C3.4572 46.7788 2.21485 47.8395 1.34094 49.1975C0.467028 50.5554 0.000522649 52.1502 0 53.7815V66.1926C0 69.2457 1.616 71.8851 4 73.3207V78.6037C4 79.7009 4.42143 80.7532 5.17157 81.529C5.92172 82.3049 6.93913 82.7407 8 82.7407H12C13.0609 82.7407 14.0783 82.3049 14.8284 81.529C15.5786 80.7532 16 79.7009 16 78.6037V74.4667H64V78.6037C64 79.7009 64.4214 80.7532 65.1716 81.529C65.9217 82.3049 66.9391 82.7407 68 82.7407H72C73.0609 82.7407 74.0783 82.3049 74.8284 81.529C75.5786 80.7532 76 79.7009 76 78.6037V73.3207C77.2136 72.6009 78.2223 71.563 78.9245 70.3116C79.6267 69.0602 79.9977 67.6395 80 66.1926V53.7815C80 50.3436 77.972 47.4022 75.088 46.1486ZM21.764 28.9593H58.232C59.0719 28.959 59.8905 29.2323 60.5718 29.7402C61.2531 30.2481 61.7626 30.9649 62.028 31.789L66.452 45.5074H13.548L17.968 31.789C18.516 30.0969 20.044 28.9593 21.764 28.9593ZM14 66.1926C13.2118 66.1923 12.4314 66.0315 11.7033 65.7193C10.9752 65.4071 10.3137 64.9496 9.75653 64.3729C8.63131 63.2084 7.99947 61.6293 8 59.9829C8.00053 58.3365 8.63339 56.7578 9.75936 55.594C10.8853 54.4303 12.4122 53.7768 14.004 53.7773C15.5958 53.7779 17.1223 54.4324 18.2475 55.597C19.3727 56.7615 20.0045 58.3407 20.004 59.987C20.0035 61.6334 19.3706 63.2121 18.2446 64.3759C17.1187 65.5396 15.5918 66.1931 14 66.1926ZM66 66.1926C64.4082 66.192 62.8817 65.5375 61.7565 64.3729C60.6313 63.2084 59.9995 61.6293 60 59.9829C60.0005 58.3365 60.6334 56.7578 61.7594 55.594C62.8853 54.4303 64.4122 53.7768 66.004 53.7773C67.5958 53.7779 69.1222 54.4324 70.2475 55.597C71.3727 56.7615 72.0045 58.3407 72.004 59.987C72.0035 61.6334 71.3706 63.2121 70.2446 64.3759C69.1187 65.5396 67.5918 66.1931 66 66.1926ZM13.108 12.4111C14.496 14.8726 17.048 16.5481 20 16.5481C22.952 16.5481 25.504 14.8726 26.892 12.4111H53.112C54.496 14.8726 57.048 16.5481 60 16.5481C62.952 16.5481 65.504 14.8726 66.892 12.4111H60V4.13704H66.892C65.504 1.6755 62.952 0 60 0C57.048 0 54.496 1.6755 53.108 4.13704H26.892C25.504 1.6755 22.952 0 20 0C17.048 0 14.496 1.6755 13.108 4.13704H20V12.4111H13.108Z" fill="#F92A2A"/>
</svg>
