<svg width="100" height="85" viewBox="0 0 100 85" fill="none" xmlns="http://www.w3.org/2000/svg">
<path d="M94.9999 0.0372917C94.5739 -0.0124306 94.1446 -0.0124306 93.7186 0.0372917H6.21863C5.65783 0.0470807 5.10074 0.142339 4.56238 0.320502L49.7186 51.263L94.9999 0.0372917Z" fill="#E70F0F"/>
<path d="M99.625 4.95752L54.125 56.2895C52.954 57.6082 51.3699 58.3484 49.7188 58.3484C48.0676 58.3484 46.4835 57.6082 45.3125 56.2895L0.21875 5.34693C0.0801232 5.92412 0.00662089 6.51888 0 7.117V77.9197C0 79.7975 0.65848 81.5984 1.83058 82.9262C3.00269 84.254 4.5924 84.9999 6.25 84.9999H93.75C95.4076 84.9999 96.9973 84.254 98.1694 82.9262C99.3415 81.5984 100 79.7975 100 77.9197V7.117C99.9751 6.37943 99.8486 5.6508 99.625 4.95752ZM10.5313 77.9197H6.1875V72.8573L28.9062 47.3329L33.3125 52.3245L10.5313 77.9197ZM93.6875 77.9197H89.3125L66.5312 52.3245L70.9375 47.3329L93.6562 72.8573L93.6875 77.9197Z" fill="#E70F0F"/>
</svg>
