<svg width="102" height="100" viewBox="0 0 102 100" fill="none" xmlns="http://www.w3.org/2000/svg">
<path d="M42.3984 58.3966C48.6507 64.7464 56.2158 69.6488 64.5624 72.7595L75.8541 63.764C76.1888 63.5332 76.5857 63.4096 76.9922 63.4096C77.3987 63.4096 77.7956 63.5332 78.1304 63.764L99.0963 77.2873C99.8923 77.7664 100.566 78.4242 101.064 79.2087C101.563 79.9933 101.872 80.8831 101.968 81.8079C102.064 82.7327 101.944 83.6672 101.617 84.5375C101.29 85.4078 100.765 86.1901 100.085 86.8226L90.2607 96.5378C88.8538 97.9294 87.1246 98.9508 85.2275 99.5106C83.3303 100.07 81.3243 100.151 79.3883 99.7462C60.0763 95.7531 42.2761 86.4013 28.0218 72.7595C14.0839 58.9821 4.43896 41.4516 0.256939 22.2945C-0.156191 20.3864 -0.0699647 18.4038 0.507261 16.5388C1.08449 14.6738 2.13314 12.9898 3.55158 11.6498L13.735 1.81467C14.3652 1.16635 15.1337 0.669158 15.983 0.36032C16.8323 0.0514819 17.7404 -0.0610001 18.6393 0.0312967C19.5382 0.123594 20.4045 0.418278 21.1735 0.893283C21.9426 1.36829 22.5942 2.01131 23.0798 2.77419L37.0372 23.4939C37.2779 23.8193 37.4078 24.2135 37.4078 24.6184C37.4078 25.0233 37.2779 25.4175 37.0372 25.7428L27.8421 36.8073C31.0337 44.9961 36.006 52.3709 42.3984 58.3966Z" fill="#E70F0F"/>
</svg>
