<svg width="40" height="40" viewBox="0 0 40 40" fill="none" xmlns="http://www.w3.org/2000/svg">
<path d="M16.6268 23.3587C19.0787 25.8986 22.0454 27.8595 25.3186 29.1038L29.7467 25.5056C29.878 25.4133 30.0336 25.3638 30.193 25.3638C30.3524 25.3638 30.5081 25.4133 30.6394 25.5056L38.8613 30.9149C39.1734 31.1065 39.4377 31.3697 39.6331 31.6835C39.8286 31.9973 39.9499 32.3532 39.9875 32.7232C40.025 33.0931 39.9779 33.4669 39.8497 33.815C39.7215 34.1631 39.5159 34.476 39.2489 34.729L35.3963 38.6151C34.8446 39.1718 34.1665 39.5803 33.4225 39.8042C32.6786 40.0282 31.8919 40.0605 31.1327 39.8985C23.5594 38.3012 16.5788 34.5605 10.9889 29.1038C5.5231 23.5928 1.74077 16.5806 0.100761 8.91781C-0.0612512 8.15455 -0.0274371 7.3615 0.198926 6.61552C0.425289 5.86953 0.836524 5.1959 1.39278 4.65992L5.38629 0.725867C5.63341 0.46654 5.93479 0.267663 6.26785 0.144128C6.60091 0.0205928 6.95703 -0.0244001 7.30953 0.0125187C7.66203 0.0494374 8.00178 0.167311 8.30335 0.357313C8.60492 0.547316 8.86049 0.804523 9.05092 1.10968L14.5244 9.39757C14.6188 9.52771 14.6697 9.68539 14.6697 9.84735C14.6697 10.0093 14.6188 10.167 14.5244 10.2971L10.9185 14.7229C12.1701 17.9984 14.12 20.9484 16.6268 23.3587V23.3587Z" fill="#E70F0F"/>
</svg>
