<svg width="100" height="100" viewBox="0 0 100 100" fill="none" xmlns="http://www.w3.org/2000/svg">
<path d="M100 11.8618C96.3226 13.8663 92.3721 15.2207 88.219 15.8329C92.5042 12.6788 95.7101 7.71451 97.2386 1.86645C93.2126 4.80812 88.8063 6.87874 84.2112 7.98828C81.1212 3.9298 77.0284 1.23978 72.5682 0.335847C68.1079 -0.568083 63.5299 0.364655 59.5448 2.98925C55.5597 5.61384 52.3905 9.78345 50.5292 14.8507C48.6679 19.918 48.2187 25.5994 49.2513 31.0129C41.0935 30.509 33.113 27.9008 25.8276 23.3574C18.5423 18.814 12.115 12.437 6.96292 4.64023C5.20127 8.37834 4.18832 12.7124 4.18832 17.3281C4.18636 21.4834 5.0182 25.575 6.61005 29.2399C8.20191 32.9048 10.5045 36.0297 13.3137 38.3374C10.0558 38.2099 6.86987 37.127 4.02096 35.179V35.504C4.02064 41.3319 5.65944 46.9804 8.65931 51.4912C11.6592 56.0019 15.8353 59.0971 20.4792 60.2514C17.457 61.2575 14.2885 61.4057 11.2129 60.6848C12.5231 65.6993 15.0753 70.0844 18.5121 73.226C21.949 76.3677 26.0985 78.1086 30.3796 78.2052C23.1121 85.2231 14.1367 89.0299 4.89738 89.0132C3.26073 89.0137 1.62546 88.8961 0 88.661C9.37847 96.0786 20.2957 100.015 31.4454 99.9999C69.1888 99.9999 89.8221 61.5462 89.8221 28.1957C89.8221 27.1122 89.8001 26.0179 89.7604 24.9344C93.7739 21.3641 97.2382 16.9429 99.9912 11.8781L100 11.8618Z" fill="#E70F0F"/>
</svg>
