<svg width="139" height="100" viewBox="0 0 139 100" fill="none" xmlns="http://www.w3.org/2000/svg">
<path fill-rule="evenodd" clip-rule="evenodd" d="M135.812 6.77143C136.773 2.87143 135.812 0 131.207 0H116.005C112.136 0 110.352 2.47857 109.385 5.21429C109.385 5.21429 101.653 28.0429 90.7014 42.8714C87.157 47.1714 85.5469 48.5357 83.6125 48.5357C82.6454 48.5357 81.1917 47.1714 81.1917 43.2643V6.77143C81.1917 2.08571 80.126 0 76.9059 0H52.9984C50.5834 0 49.1297 2.17143 49.1297 4.23571C49.1297 8.67143 54.6085 9.7 55.1703 22.1857V49.3143C55.1703 55.2643 54.2842 56.3429 52.3498 56.3429C47.1953 56.3429 34.6566 33.4071 27.2145 7.16428C25.7724 2.05714 24.3129 0 20.4268 0H5.21239C0.868732 0 0 2.47857 0 5.21429C0 10.0857 5.15447 34.2857 24.006 66.2929C36.5736 88.15 54.2668 100 70.3847 100C80.0507 100 81.2438 97.3714 81.2438 92.8357V76.3143C81.2438 71.05 82.1589 70 85.2226 70C87.4813 70 91.3443 71.3714 100.367 81.9071C110.676 94.4 112.373 100 118.176 100H133.379C137.723 100 139.901 97.3714 138.65 92.1714C137.271 87 132.348 79.4929 125.821 70.5857C122.277 65.5143 116.96 60.05 115.344 57.3143C113.092 53.8071 113.734 52.2429 115.344 49.1214C115.344 49.1214 133.877 17.5071 135.806 6.77143H135.812Z" fill="#E70F0F"/>
</svg>
